<svg xmlns="http://www.w3.org/2000/svg" xmlns:xlink="http://www.w3.org/1999/xlink" contentStyleType="text/css" height="199px" preserveAspectRatio="none" style="width:967px;height:199px;background:#FFFFFF;" version="1.1" viewBox="0 0 967 199" width="967px" zoomAndPan="magnify"><defs/><g><!--class DotFile--><g id="elem_DotFile"><rect codeLine="3" fill="#F1F1F1" height="85.2422" id="DotFile" rx="2.5" ry="2.5" style="stroke:#181818;stroke-width:0.5;" width="87.4824" x="7" y="88.5"/><ellipse cx="27.012" cy="104.5" fill="#ADD1B2" rx="11" ry="11" style="stroke:#181818;stroke-width:1.0;"/><path d="M29.7776,100.375 Q29.9338,100.1563 30.1213,100.0469 Q30.3088,99.9375 30.5276,99.9375 Q30.9026,99.9375 31.137,100.2031 Q31.3713,100.4531 31.3713,101.0625 L31.3713,102.5156 Q31.3713,103.125 31.137,103.3906 Q30.9026,103.6563 30.5276,103.6563 Q30.1838,103.6563 29.9807,103.4531 Q29.7776,103.2656 29.6682,102.75 Q29.6213,102.3906 29.4338,102.2031 Q29.1057,101.8281 28.4963,101.6094 Q27.887,101.3906 27.262,101.3906 Q26.4963,101.3906 25.8557,101.7188 Q25.2307,102.0469 24.7307,102.7969 Q24.2463,103.5469 24.2463,104.5781 L24.2463,105.6719 Q24.2463,106.9063 25.137,107.7344 Q26.0276,108.5469 27.6213,108.5469 Q28.5588,108.5469 29.2151,108.2969 Q29.6057,108.1406 30.0276,107.7031 Q30.2932,107.4375 30.4338,107.3594 Q30.5901,107.2813 30.7932,107.2813 Q31.1213,107.2813 31.3713,107.5469 Q31.637,107.7969 31.637,108.1406 Q31.637,108.4844 31.2932,108.8906 Q30.7932,109.4688 29.9963,109.7969 Q28.9182,110.25 27.6213,110.25 Q26.1057,110.25 24.9026,109.625 Q23.9182,109.125 23.2307,108.0625 Q22.5432,106.9844 22.5432,105.7031 L22.5432,104.5469 Q22.5432,103.2188 23.1526,102.0781 Q23.7776,100.9219 24.8713,100.3125 Q25.9651,99.6875 27.1995,99.6875 Q27.9338,99.6875 28.5745,99.8594 Q29.2307,100.0156 29.7776,100.375 Z " fill="#000000"/><text fill="#000000" font-family="sans-serif" font-size="14" lengthAdjust="spacing" textLength="44.3447" x="42.1257" y="110.2969">DotFile</text><line style="stroke:#181818;stroke-width:0.5;" x1="8" x2="93.4824" y1="120.5" y2="120.5"/><text fill="#000000" font-family="sans-serif" font-size="14" lengthAdjust="spacing" textLength="75.4824" x="13" y="139.6074">String name</text><text fill="#000000" font-family="sans-serif" font-size="14" lengthAdjust="spacing" textLength="59.9238" x="13" y="158.2285">String fqn</text><line style="stroke:#181818;stroke-width:0.5;" x1="8" x2="93.4824" y1="165.7422" y2="165.7422"/></g><!--class Graph--><g id="elem_Graph"><rect codeLine="10" fill="#F1F1F1" height="122.4844" id="Graph" rx="2.5" ry="2.5" style="stroke:#181818;stroke-width:0.5;" width="139.6133" x="236" y="70"/><ellipse cx="282.1016" cy="86" fill="#ADD1B2" rx="11" ry="11" style="stroke:#181818;stroke-width:1.0;"/><path d="M284.8672,81.875 Q285.0234,81.6563 285.2109,81.5469 Q285.3984,81.4375 285.6172,81.4375 Q285.9922,81.4375 286.2266,81.7031 Q286.4609,81.9531 286.4609,82.5625 L286.4609,84.0156 Q286.4609,84.625 286.2266,84.8906 Q285.9922,85.1563 285.6172,85.1563 Q285.2734,85.1563 285.0703,84.9531 Q284.8672,84.7656 284.7578,84.25 Q284.7109,83.8906 284.5234,83.7031 Q284.1953,83.3281 283.5859,83.1094 Q282.9766,82.8906 282.3516,82.8906 Q281.5859,82.8906 280.9453,83.2188 Q280.3203,83.5469 279.8203,84.2969 Q279.3359,85.0469 279.3359,86.0781 L279.3359,87.1719 Q279.3359,88.4063 280.2266,89.2344 Q281.1172,90.0469 282.7109,90.0469 Q283.6484,90.0469 284.3047,89.7969 Q284.6953,89.6406 285.1172,89.2031 Q285.3828,88.9375 285.5234,88.8594 Q285.6797,88.7813 285.8828,88.7813 Q286.2109,88.7813 286.4609,89.0469 Q286.7266,89.2969 286.7266,89.6406 Q286.7266,89.9844 286.3828,90.3906 Q285.8828,90.9688 285.0859,91.2969 Q284.0078,91.75 282.7109,91.75 Q281.1953,91.75 279.9922,91.125 Q279.0078,90.625 278.3203,89.5625 Q277.6328,88.4844 277.6328,87.2031 L277.6328,86.0469 Q277.6328,84.7188 278.2422,83.5781 Q278.8672,82.4219 279.9609,81.8125 Q281.0547,81.1875 282.2891,81.1875 Q283.0234,81.1875 283.6641,81.3594 Q284.3203,81.5156 284.8672,81.875 Z " fill="#000000"/><text fill="#000000" font-family="sans-serif" font-size="14" lengthAdjust="spacing" textLength="38.9102" x="302.6016" y="91.7969">Graph</text><line style="stroke:#181818;stroke-width:0.5;" x1="237" x2="374.6133" y1="102" y2="102"/><text fill="#000000" font-family="sans-serif" font-size="14" lengthAdjust="spacing" textLength="83.2686" x="242" y="121.1074">boolean strict</text><text fill="#000000" font-family="sans-serif" font-size="14" lengthAdjust="spacing" textLength="66.9238" x="242" y="139.7285">String type</text><text fill="#000000" font-family="sans-serif" font-size="14" lengthAdjust="spacing" textLength="71.5996" x="242" y="158.3496">String dotId</text><text fill="#000000" font-family="sans-serif" font-size="14" lengthAdjust="spacing" textLength="127.6133" x="242" y="176.9707">&lt;Custom Attributes&gt;</text><line style="stroke:#181818;stroke-width:0.5;" x1="237" x2="374.6133" y1="184.4844" y2="184.4844"/></g><!--class Node--><g id="elem_Node"><rect codeLine="19" fill="#F1F1F1" height="85.2422" id="Node" rx="2.5" ry="2.5" style="stroke:#181818;stroke-width:0.5;" width="139.6133" x="509" y="88.5"/><ellipse cx="557.8223" cy="104.5" fill="#ADD1B2" rx="11" ry="11" style="stroke:#181818;stroke-width:1.0;"/><path d="M560.5879,100.375 Q560.7441,100.1563 560.9316,100.0469 Q561.1191,99.9375 561.3379,99.9375 Q561.7129,99.9375 561.9473,100.2031 Q562.1816,100.4531 562.1816,101.0625 L562.1816,102.5156 Q562.1816,103.125 561.9473,103.3906 Q561.7129,103.6563 561.3379,103.6563 Q560.9941,103.6563 560.791,103.4531 Q560.5879,103.2656 560.4785,102.75 Q560.4316,102.3906 560.2441,102.2031 Q559.916,101.8281 559.3066,101.6094 Q558.6973,101.3906 558.0723,101.3906 Q557.3066,101.3906 556.666,101.7188 Q556.041,102.0469 555.541,102.7969 Q555.0566,103.5469 555.0566,104.5781 L555.0566,105.6719 Q555.0566,106.9063 555.9473,107.7344 Q556.8379,108.5469 558.4316,108.5469 Q559.3691,108.5469 560.0254,108.2969 Q560.416,108.1406 560.8379,107.7031 Q561.1035,107.4375 561.2441,107.3594 Q561.4004,107.2813 561.6035,107.2813 Q561.9316,107.2813 562.1816,107.5469 Q562.4473,107.7969 562.4473,108.1406 Q562.4473,108.4844 562.1035,108.8906 Q561.6035,109.4688 560.8066,109.7969 Q559.7285,110.25 558.4316,110.25 Q556.916,110.25 555.7129,109.625 Q554.7285,109.125 554.041,108.0625 Q553.3535,106.9844 553.3535,105.7031 L553.3535,104.5469 Q553.3535,103.2188 553.9629,102.0781 Q554.5879,100.9219 555.6816,100.3125 Q556.7754,99.6875 558.0098,99.6875 Q558.7441,99.6875 559.3848,99.8594 Q560.041,100.0156 560.5879,100.375 Z " fill="#000000"/><text fill="#000000" font-family="sans-serif" font-size="14" lengthAdjust="spacing" textLength="33.4688" x="578.3223" y="110.2969">Node</text><line style="stroke:#181818;stroke-width:0.5;" x1="510" x2="647.6133" y1="120.5" y2="120.5"/><text fill="#000000" font-family="sans-serif" font-size="14" lengthAdjust="spacing" textLength="71.5996" x="515" y="139.6074">String dotId</text><text fill="#000000" font-family="sans-serif" font-size="14" lengthAdjust="spacing" textLength="127.6133" x="515" y="158.2285">&lt;Custom Attributes&gt;</text><line style="stroke:#181818;stroke-width:0.5;" x1="510" x2="647.6133" y1="165.7422" y2="165.7422"/></g><!--class IS_CONNECTED_WITH--><g id="elem_IS_CONNECTED_WITH"><rect codeLine="27" fill="#F1F1F1" height="66.6211" id="IS_CONNECTED_WITH" rx="2.5" ry="2.5" style="stroke:#181818;stroke-width:0.5;" width="185.2344" x="775" y="97.5"/><ellipse cx="790" cy="113.5" fill="#ADD1B2" rx="11" ry="11" style="stroke:#181818;stroke-width:1.0;"/><path d="M792.7656,109.375 Q792.9219,109.1563 793.1094,109.0469 Q793.2969,108.9375 793.5156,108.9375 Q793.8906,108.9375 794.125,109.2031 Q794.3594,109.4531 794.3594,110.0625 L794.3594,111.5156 Q794.3594,112.125 794.125,112.3906 Q793.8906,112.6563 793.5156,112.6563 Q793.1719,112.6563 792.9688,112.4531 Q792.7656,112.2656 792.6563,111.75 Q792.6094,111.3906 792.4219,111.2031 Q792.0938,110.8281 791.4844,110.6094 Q790.875,110.3906 790.25,110.3906 Q789.4844,110.3906 788.8438,110.7188 Q788.2188,111.0469 787.7188,111.7969 Q787.2344,112.5469 787.2344,113.5781 L787.2344,114.6719 Q787.2344,115.9063 788.125,116.7344 Q789.0156,117.5469 790.6094,117.5469 Q791.5469,117.5469 792.2031,117.2969 Q792.5938,117.1406 793.0156,116.7031 Q793.2813,116.4375 793.4219,116.3594 Q793.5781,116.2813 793.7813,116.2813 Q794.1094,116.2813 794.3594,116.5469 Q794.625,116.7969 794.625,117.1406 Q794.625,117.4844 794.2813,117.8906 Q793.7813,118.4688 792.9844,118.7969 Q791.9063,119.25 790.6094,119.25 Q789.0938,119.25 787.8906,118.625 Q786.9063,118.125 786.2188,117.0625 Q785.5313,115.9844 785.5313,114.7031 L785.5313,113.5469 Q785.5313,112.2188 786.1406,111.0781 Q786.7656,109.9219 787.8594,109.3125 Q788.9531,108.6875 790.1875,108.6875 Q790.9219,108.6875 791.5625,108.8594 Q792.2188,109.0156 792.7656,109.375 Z " fill="#000000"/><text fill="#000000" font-family="sans-serif" font-size="14" lengthAdjust="spacing" textLength="153.2344" x="804" y="119.2969">IS_CONNECTED_WITH</text><line style="stroke:#181818;stroke-width:0.5;" x1="776" x2="959.2344" y1="129.5" y2="129.5"/><text fill="#000000" font-family="sans-serif" font-size="14" lengthAdjust="spacing" textLength="127.6133" x="781" y="148.6074">&lt;Custom Attributes&gt;</text><line style="stroke:#181818;stroke-width:0.5;" x1="776" x2="959.2344" y1="156.1211" y2="156.1211"/></g><ellipse cx="712" cy="131" fill="#181818" rx="2" ry="2" style="stroke:#181818;stroke-width:1.0;"/><!--link DotFile to Graph--><g id="link_DotFile_Graph"><path codeLine="8" d="M94.22,131 C132.88,131 184.53,131 229.77,131 " fill="none" id="DotFile-to-Graph" style="stroke:#181818;stroke-width:1.0;"/><polygon fill="#181818" points="235.77,131,226.77,127,230.77,131,226.77,135,235.77,131" style="stroke:#181818;stroke-width:1.0;"/><text fill="#000000" font-family="sans-serif" font-size="13" lengthAdjust="spacing" textLength="80.1899" x="125" y="127.0283">HAS_GRAPH</text></g><!--link Graph to Node--><g id="link_Graph_Node"><path codeLine="17" d="M376.09,131 C416.7,131 461.89,131 502.57,131 " fill="none" id="Graph-to-Node" style="stroke:#181818;stroke-width:1.0;"/><polygon fill="#181818" points="508.57,131,499.57,127,503.57,131,499.57,135,508.57,131" style="stroke:#181818;stroke-width:1.0;"/><text fill="#000000" font-family="sans-serif" font-size="13" lengthAdjust="spacing" textLength="71.519" x="407" y="127.0283">HAS_NODE</text></g><!--link Graph to Graph--><g id="link_Graph_Graph"><path codeLine="18" d="M280.51,69.6 C280.9,50.26 289.4,35 306,35 C322.6,35 330.979,44.2612 331.369,63.6012 " fill="none" id="Graph-to-Graph" style="stroke:#181818;stroke-width:1.0;"/><polygon fill="#181818" points="331.49,69.6,335.3077,60.5212,331.3892,64.601,327.3094,60.6825,331.49,69.6" style="stroke:#181818;stroke-width:1.0;"/><text fill="#000000" font-family="sans-serif" font-size="13" lengthAdjust="spacing" textLength="80.1899" x="266" y="26.0283">HAS_GRAPH</text></g><!--reverse link Node to apoint10--><g id="link_Node_apoint10"><path d="M655.3397,143.6689 C684.7897,143.3689 707.22,139.68 710.65,132.49 " fill="none" id="Node-backto-apoint10" style="stroke:#181818;stroke-width:1.0;"/><polygon fill="#181818" points="649.34,143.73,658.3803,147.6381,654.3397,143.6791,658.2988,139.6385,649.34,143.73" style="stroke:#181818;stroke-width:1.0;"/></g><!--link apoint10 to Node--><g id="link_apoint10_Node"><path d="M710.65,129.43 C707.22,121.81 678.79,117.84 649.34,117.52 " fill="none" id="apoint10-Node" style="stroke:#181818;stroke-width:1.0;"/></g><!--link apoint10 to IS_CONNECTED_WITH--><g id="link_apoint10_IS_CONNECTED_WITH"><path d="M714.33,131 C720.36,131 746.18,131 774.87,131 " fill="none" id="apoint10-IS_CONNECTED_WITH" style="stroke:#181818;stroke-width:1.0;stroke-dasharray:7.0,7.0;"/></g><!--SRC=[ZOzD2u9048RlyolcM93zW111rDIBHGOTnOzL5tIttF4GqdylFmaawB8C-yuypqp5SaAIsF2Y9CnumrBYKW2aLQmKsfAEl68TXDHmKQ28QpRN-KF02s1gGKqpq6tYUua7zCmmSY_csPivOz118cN5Oe7gWqXf9j7plb0pINu6kjKgaZMQzFbDMcBAw5qZfZS5CcEJA3ZPpbUotc5SOPZe_j8ChRgc3JEmwT_TK6znlqS_ZAnJ43ZMrR6ZctzTZbm5tG_16m00]--></g></svg>